<svg xmlns="http://www.w3.org/2000/svg" viewBox="0 0 32 32" fill="none">
  <rect width="32" height="32" rx="8" fill="#0F172A"/>
  <path d="M16 8C16 8 14 6 12 6C10 6 8 8 8 10C8 12 10 14 12 14C14 14 16 12 16 10C16 8 16 8 16 8Z" fill="#06B6D4"/>
  <path d="M20 12C20 12 18 10 16 10C14 10 12 12 12 14C12 16 14 18 16 18C18 18 20 16 20 14C20 12 20 12 20 12Z" fill="#06B6D4"/>
  <path d="M12 16C12 16 10 14 8 14C6 14 4 16 4 18C4 20 6 22 8 22C10 22 12 20 12 18C12 16 12 16 12 16Z" fill="#06B6D4"/>
  <circle cx="16" cy="12" r="2" fill="#0F172A"/>
</svg>